<svg width="309" height="83" viewBox="0 0 309 83" fill="none" xmlns="http://www.w3.org/2000/svg">
<path d="M150.868 35.8H157.276V61H150.868V52.648C149.5 53.104 148.072 53.332 146.584 53.332C143.872 53.332 141.688 52.576 140.032 51.064C138.376 49.552 137.548 47.464 137.548 44.8V35.8H143.956V44.116C143.956 45.076 144.244 45.82 144.82 46.348C145.396 46.876 146.14 47.14 147.052 47.14C148.372 47.14 149.644 46.924 150.868 46.492V35.8ZM167.733 54.952H177.489V61H161.289V35.8H177.309V41.812H167.733V45.304H176.409V51.244H167.733V54.952ZM206.258 35.8V61H199.85V47.428L193.73 57.544H193.082L186.998 47.464V61H180.554V35.8H186.998L193.406 46.564L199.85 35.8H206.258ZM229.701 35.8V61H223.257V42.028H216.705V61H210.261V35.8H229.701ZM247.571 61V48.328L238.679 61H233.675V35.8H240.119V48.472L249.011 35.8H253.979V61H247.571ZM279.568 57.76C277.024 60.28 273.904 61.54 270.208 61.54C266.512 61.54 263.38 60.28 260.812 57.76C258.268 55.216 256.996 52.096 256.996 48.4C256.996 44.704 258.268 41.596 260.812 39.076C263.38 36.532 266.512 35.26 270.208 35.26C273.904 35.26 277.024 36.532 279.568 39.076C282.136 41.596 283.42 44.704 283.42 48.4C283.42 52.096 282.136 55.216 279.568 57.76ZM265.348 53.332C266.644 54.604 268.264 55.24 270.208 55.24C272.152 55.24 273.772 54.604 275.068 53.332C276.364 52.036 277.012 50.392 277.012 48.4C277.012 46.408 276.364 44.776 275.068 43.504C273.772 42.208 272.152 41.56 270.208 41.56C268.264 41.56 266.644 42.208 265.348 43.504C264.052 44.776 263.404 46.408 263.404 48.4C263.404 50.392 264.052 52.036 265.348 53.332ZM299.946 35.8H306.354V61H299.946V51.316H292.854V61H286.41V35.8H292.854V45.124H299.946V35.8Z" fill="white"/>
<path d="M147.662 18.2H148.18V28H137.302V18.2H137.82V27.524H142.482V18.2H143V27.524H147.662V18.2ZM155.71 28H155.038L151.146 24.514V28H150.642V21H151.146V24.22L154.898 21H155.57L151.664 24.36L155.71 28ZM159.699 28.154C158.681 28.154 157.818 27.804 157.109 27.104C156.399 26.3947 156.045 25.5267 156.045 24.5C156.045 23.4733 156.399 22.61 157.109 21.91C157.818 21.2007 158.681 20.846 159.699 20.846C160.725 20.846 161.593 21.2007 162.303 21.91C163.012 22.61 163.367 23.4733 163.367 24.5C163.367 25.5267 163.012 26.3947 162.303 27.104C161.593 27.804 160.725 28.154 159.699 28.154ZM157.445 26.768C158.061 27.3747 158.812 27.678 159.699 27.678C160.585 27.678 161.337 27.3747 161.953 26.768C162.569 26.152 162.877 25.396 162.877 24.5C162.877 23.604 162.569 22.8527 161.953 22.246C161.337 21.63 160.585 21.322 159.699 21.322C158.812 21.322 158.061 21.63 157.445 22.246C156.838 22.8527 156.535 23.604 156.535 24.5C156.535 25.396 156.838 26.152 157.445 26.768ZM170.572 21V28H170.068V21.462H166.204V25.116C166.204 27.16 165.467 28.1213 163.992 28V27.538C164.571 27.5847 165 27.4213 165.28 27.048C165.56 26.6653 165.7 26.0213 165.7 25.116V21H170.572ZM179.228 21H179.718V28H179.228V26.124C178.948 26.74 178.524 27.2347 177.954 27.608C177.385 27.972 176.746 28.154 176.036 28.154C175.028 28.154 174.17 27.804 173.46 27.104C172.751 26.3947 172.396 25.5267 172.396 24.5C172.396 23.4733 172.751 22.61 173.46 21.91C174.17 21.2007 175.028 20.846 176.036 20.846C176.746 20.846 177.385 21.0327 177.954 21.406C178.524 21.77 178.948 22.26 179.228 22.876V21ZM173.796 26.768C174.412 27.3747 175.164 27.678 176.05 27.678C176.937 27.678 177.688 27.3747 178.304 26.768C178.92 26.152 179.228 25.396 179.228 24.5C179.228 23.604 178.92 22.8527 178.304 22.246C177.688 21.63 176.937 21.322 176.05 21.322C175.164 21.322 174.412 21.63 173.796 22.246C173.19 22.8527 172.886 23.604 172.886 24.5C172.886 25.396 173.19 26.152 173.796 26.768ZM189.008 28.154C188 28.154 187.164 27.8273 186.502 27.174C185.839 26.5113 185.508 25.6433 185.508 24.57C185.508 23.422 185.671 22.5307 185.998 21.896C186.334 21.252 187.02 20.678 188.056 20.174C188.298 20.0527 188.592 19.922 188.938 19.782C189.292 19.6327 189.568 19.5113 189.764 19.418C189.969 19.3247 190.179 19.2127 190.394 19.082C190.608 18.9513 190.772 18.8067 190.884 18.648C191.005 18.48 191.084 18.284 191.122 18.06L191.514 18.284C191.467 18.5267 191.378 18.746 191.248 18.942C191.117 19.1287 190.93 19.2967 190.688 19.446C190.454 19.586 190.235 19.7073 190.03 19.81C189.824 19.9033 189.54 20.0247 189.176 20.174C188.812 20.3233 188.522 20.4493 188.308 20.552C187.57 20.9067 187.034 21.294 186.698 21.714C186.362 22.134 186.152 22.708 186.068 23.436C186.404 22.848 186.847 22.4047 187.398 22.106C187.958 21.798 188.536 21.644 189.134 21.644C190.058 21.644 190.832 21.952 191.458 22.568C192.083 23.184 192.396 23.9633 192.396 24.906C192.396 25.8487 192.078 26.628 191.444 27.244C190.809 27.8507 189.997 28.154 189.008 28.154ZM189.008 27.678C189.857 27.678 190.552 27.4213 191.094 26.908C191.635 26.3853 191.906 25.718 191.906 24.906C191.906 24.094 191.64 23.4267 191.108 22.904C190.585 22.372 189.913 22.106 189.092 22.106C188.345 22.106 187.673 22.3487 187.076 22.834C186.488 23.31 186.133 23.9167 186.012 24.654C186.012 25.5407 186.292 26.2687 186.852 26.838C187.412 27.398 188.13 27.678 189.008 27.678ZM197.228 28.154C196.211 28.154 195.347 27.804 194.638 27.104C193.929 26.3947 193.574 25.5267 193.574 24.5C193.574 23.4733 193.929 22.61 194.638 21.91C195.347 21.2007 196.211 20.846 197.228 20.846C198.255 20.846 199.123 21.2007 199.832 21.91C200.541 22.61 200.896 23.4733 200.896 24.5C200.896 25.5267 200.541 26.3947 199.832 27.104C199.123 27.804 198.255 28.154 197.228 28.154ZM194.974 26.768C195.59 27.3747 196.341 27.678 197.228 27.678C198.115 27.678 198.866 27.3747 199.482 26.768C200.098 26.152 200.406 25.396 200.406 24.5C200.406 23.604 200.098 22.8527 199.482 22.246C198.866 21.63 198.115 21.322 197.228 21.322C196.341 21.322 195.59 21.63 194.974 22.246C194.367 22.8527 194.064 23.604 194.064 24.5C194.064 25.396 194.367 26.152 194.974 26.768ZM207.787 28H207.115L203.223 24.514V28H202.719V21H203.223V24.22L206.975 21H207.647L203.741 24.36L207.787 28ZM211.775 28.154C210.739 28.154 209.871 27.804 209.171 27.104C208.471 26.404 208.121 25.536 208.121 24.5C208.121 23.464 208.471 22.596 209.171 21.896C209.871 21.196 210.739 20.846 211.775 20.846C212.456 20.846 213.072 21.0047 213.623 21.322C214.174 21.6393 214.58 22.064 214.841 22.596L214.435 22.834C214.211 22.3767 213.861 22.0127 213.385 21.742C212.909 21.462 212.372 21.322 211.775 21.322C210.879 21.322 210.128 21.63 209.521 22.246C208.914 22.8527 208.611 23.604 208.611 24.5C208.611 25.396 208.914 26.152 209.521 26.768C210.128 27.3747 210.879 27.678 211.775 27.678C212.372 27.678 212.904 27.5427 213.371 27.272C213.847 26.992 214.206 26.6233 214.449 26.166L214.855 26.404C214.584 26.936 214.174 27.3607 213.623 27.678C213.072 27.9953 212.456 28.154 211.775 28.154ZM222.869 21H223.359V28H222.869V26.124C222.589 26.74 222.164 27.2347 221.595 27.608C221.026 27.972 220.386 28.154 219.677 28.154C218.669 28.154 217.81 27.804 217.101 27.104C216.392 26.3947 216.037 25.5267 216.037 24.5C216.037 23.4733 216.392 22.61 217.101 21.91C217.81 21.2007 218.669 20.846 219.677 20.846C220.386 20.846 221.026 21.0327 221.595 21.406C222.164 21.77 222.589 22.26 222.869 22.876V21ZM217.437 26.768C218.053 27.3747 218.804 27.678 219.691 27.678C220.578 27.678 221.329 27.3747 221.945 26.768C222.561 26.152 222.869 25.396 222.869 24.5C222.869 23.604 222.561 22.8527 221.945 22.246C221.329 21.63 220.578 21.322 219.691 21.322C218.804 21.322 218.053 21.63 217.437 22.246C216.83 22.8527 216.527 23.604 216.527 24.5C216.527 25.396 216.83 26.152 217.437 26.768Z" fill="white"/>
<path d="M113.807 38.1307L110.764 37.8266L113.351 39.8031L112.134 43.148L115.024 41.0194L117.611 42.6919L116.698 39.8031L119.132 37.8266L116.089 38.1307L114.872 35.0899L113.807 38.1307Z" fill="white"/>
<path d="M110.764 53.3346L107.721 53.0305L110.308 55.007L109.091 58.3519L111.981 56.2233L114.568 57.8957L113.655 55.007L116.089 53.0305L113.046 53.3346L111.829 50.2938L110.764 53.3346Z" fill="white"/>
<path d="M106.172 68.1024L102.852 67.7811L105.674 69.8695L104.346 73.4037L107.5 71.1547L110.322 72.9218L109.326 69.8695L111.981 67.7811L108.662 68.1024L107.334 64.8895L106.172 68.1024Z" fill="white"/>
<path d="M18.1057 37.5225L21.1487 37.2185L18.5621 39.195L19.7793 42.5398L16.8885 40.4113L14.302 42.0837L15.2149 39.195L12.7805 37.2185L15.8234 37.5225L17.0406 34.4818L18.1057 37.5225Z" fill="white"/>
<path d="M21.1487 52.7264L24.1917 52.4223L21.6051 54.3988L22.8223 57.7437L19.9315 55.6152L17.345 57.2876L18.2579 54.3988L15.8235 52.4223L18.8664 52.7264L20.0836 49.6856L21.1487 52.7264Z" fill="white"/>
<path d="M25.7408 67.4943L29.0604 67.173L26.2387 69.2614L27.5666 72.7956L24.4129 70.5465L21.5913 72.3136L22.5872 69.2614L19.9315 67.173L23.2511 67.4943L24.5789 64.2814L25.7408 67.4943Z" fill="white"/>
<path d="M41.7259 55.6597L36.2978 51.0795C33.5893 48.7941 31.1316 46.2273 28.9662 43.4225L28.8151 43.2268L27.8745 41.0903C27.2634 39.7025 27.2022 38.1347 27.7032 36.7034C27.8502 36.2836 28.0889 35.9018 28.402 35.5858L30.6608 33.3059L31.3644 32.507L32.47 31.2514C29.661 30.391 27.9615 27.5436 28.5387 24.6647L28.8124 23.2993C28.9862 22.4324 29.3171 21.6046 29.7888 20.8566L30.5879 19.5894C32.5785 16.4328 35.6495 14.1068 39.2287 13.0447L49.8633 9.88924C53.6645 9.38254 57.4268 11.0602 59.588 14.2257L59.869 14.6373L63.1575 21.1283C63.4318 21.6697 63.6562 22.2349 63.8279 22.8169L65.9091 29.8723L69.3111 41.7433C69.9885 44.1067 68.8452 46.6116 66.6151 47.6502L46.0945 57.2062C44.4985 57.2386 42.9455 56.6888 41.7259 55.6597Z" fill="#1E36B0" stroke="black" stroke-opacity="0.25" stroke-width="2"/>
<path d="M43.177 22.7812L35.4991 28.0419L34.9966 28.6125L34.5904 27.34C34.3259 26.5113 34.2647 25.6312 34.412 24.7739C34.5236 24.1243 34.7527 23.5005 35.088 22.933L35.3826 22.4345C35.9453 21.4823 36.687 20.6478 37.5668 19.977L38.7018 19.1117L42.0278 17.1759L46.2639 15.7586C46.8869 15.5501 47.5246 15.3883 48.1715 15.2744L49.7455 14.9972C50.5967 14.8474 51.4703 14.8839 52.3059 15.1042C53.2024 15.3406 54.0315 15.7823 54.7275 16.3944L54.844 16.4968C55.501 17.0746 56.0371 17.7767 56.4212 18.5625L56.7074 19.148L54.3947 19.3817C52.0852 19.6151 49.8018 20.0577 47.5724 20.7041C46.006 21.1583 44.5222 21.8595 43.177 22.7812Z" fill="#6676AF"/>
<rect width="22.0015" height="17.1219" rx="5" transform="matrix(0.90582 -0.42428 0.42456 0.905111 43.3818 59.4801)" fill="#1E36B0"/>
<rect width="14.9047" height="3.0676" rx="1.5338" transform="matrix(0.905829 -0.424262 0.424542 0.905119 52.9669 58.3777)" fill="#AF6666"/>
<path d="M32.2555 31.2889L31.4104 30.4866C30.0656 29.21 29.5669 27.2789 30.1254 25.5114L32.712 31.2889L31.7185 32.2816C32.0982 32.7044 33.9154 34.6819 35.4506 35.546C37.1863 36.5229 40.3194 37.0664 40.3194 37.0664L45.1882 37.0664L49.6005 35.546L55.23 32.2011L58.5772 29.1604C59.3866 26.7341 59.9451 24.2314 60.2442 21.6915L60.403 20.3421L60.913 21.3614C61.1253 21.7856 61.6651 21.9223 62.054 21.6503L62.1239 21.6014C62.4918 21.344 63.0036 21.4897 63.1805 21.9023C63.2532 22.0718 63.2568 22.2629 63.1906 22.4349L61.5662 26.6551C61.198 27.6117 60.9558 28.6121 60.8456 29.631L60.403 33.7215L60.403 42.3878L60.403 44.8644C60.403 46.0044 60.8562 47.0977 61.6629 47.9038L61.7005 47.9414C62.148 48.3886 62.6935 48.7255 63.2938 48.9254L55.6864 52.2703L56.696 48.1227C56.9334 47.1476 56.9706 46.1345 56.8055 45.1446L56.6243 44.0582C56.6078 43.9589 56.5747 43.863 56.5264 43.7746L56.0253 42.8565C55.7029 42.2659 56.3884 41.6391 56.9485 42.0122C57.0193 42.0594 57.0806 42.1209 57.1278 42.1917C57.544 42.8156 58.5288 42.5233 58.509 41.7737L58.2729 32.8093L54.0128 36.3062L48.9919 39.0429L43.971 39.8031L39.5587 39.8031L40.3194 49.3815L38.1893 41.0194L36.82 39.347L32.2555 37.0664L31.6469 42.8439L31.1368 41.7676C30.571 40.5742 30.2776 39.2701 30.2776 37.9495L30.2776 37.154C30.2776 37.0957 30.2833 37.0376 30.2948 36.9805C30.4522 36.1937 29.5649 35.6203 28.9115 36.0867L28.7297 36.2164C28.6492 36.2739 28.5951 36.3611 28.5793 36.4587L28.5708 36.5113C28.4991 36.9559 27.8432 36.9033 27.8432 36.453C27.8432 36.3588 27.8796 36.2682 27.9448 36.2001L31.1905 32.8093L31.7185 32.2816C31.6719 32.2296 31.6469 32.2011 31.6469 32.2011L32.2555 31.2889Z" fill="#353232" fill-opacity="0.7"/>
<path d="M60.6568 44.0175L60.512 36.9271C60.4395 33.3811 60.7446 29.8375 61.422 26.356L61.4681 26.1196L62.451 24.0041C63.0904 22.6279 64.2282 21.5456 65.6346 20.9759C66.0469 20.8089 66.4911 20.7358 66.9351 20.7619L70.1405 20.9503H71.2056H72.8792C71.6701 18.275 72.6859 15.1189 75.2284 13.6509L76.4383 12.9524C77.2035 12.5105 78.0431 12.2122 78.9155 12.0721L80.3973 11.8341C84.0838 11.2421 87.8599 12.0094 91.023 13.9933L100.418 19.886C103.31 22.4027 104.535 26.3349 103.584 30.0485L103.461 30.5287L100.757 37.2832C100.532 37.847 100.255 38.3891 99.931 38.9027L96.0058 45.1245L89.3339 55.5206C88.0062 57.5894 85.3717 58.3862 83.1201 57.4001L62.3809 48.3173C61.3023 47.1415 60.6893 45.6128 60.6568 44.0175Z" fill="#B01E1E"/>
<path d="M86.3167 23.3871L77.2915 21.1023H76.5308L77.2181 19.9577C77.6662 19.2113 78.2872 18.5837 79.0287 18.1277C79.5902 17.7824 80.2099 17.5423 80.8575 17.419L81.4273 17.3106C82.5143 17.1037 83.631 17.1088 84.7161 17.3256L86.1161 17.6054L89.7677 18.8218L93.6313 21.0635C94.1992 21.393 94.7418 21.7643 95.2546 22.1742L96.5035 23.1726C97.178 23.7118 97.7274 24.391 98.1138 25.1632C98.5285 25.9921 98.7445 26.9063 98.7445 27.8331V27.9875C98.7445 28.8621 98.5712 29.7281 98.2346 30.5353L97.9837 31.1369L96.2811 29.557C94.5796 27.9782 92.7382 26.5573 90.7795 25.3118C89.4038 24.4369 87.8972 23.7872 86.3167 23.3871Z" fill="#AEA7A7" fill-opacity="0.53"/>
<path d="M69.2277 23.687L68.3148 36.9144L70.3078 28.1734C70.8015 26.0084 71.6522 23.9408 72.8251 22.0553L74.5529 19.2778L75.4657 17.6054C74.4225 17.0842 73.1545 17.4209 72.5073 18.391L72.4228 18.5176L72.8792 20.7982L70.4448 21.1023L66.1847 23.687C64.9793 24.9919 64.0426 26.5213 63.4281 28.1881L63.2939 28.5522L69.2277 23.687Z" fill="#353232" fill-opacity="0.7"/>
<rect width="30.4266" height="17.1171" rx="5" transform="matrix(0.916895 0.399129 -0.399613 0.916684 60.7009 48.4693)" fill="#B01E1E"/>
<rect width="14.9089" height="3.06675" rx="1.53338" transform="matrix(0.916887 0.399147 -0.399631 0.916676 66.6495 52.7264)" fill="#AF6666"/>
</svg>
